<svg class="icon" style="width: 1em;height: 1em;vertical-align: middle;fill: currentColor;overflow: hidden;" viewBox="0 0 1024 1024" version="1.1" xmlns="http://www.w3.org/2000/svg"><path d="M0 0h1024v1024H0z" opacity=".01" /><path d="M170.656 768v-157.856a64 64 0 0 0-64-64h-21.312v-68.288h21.312a64 64 0 0 0 64-64V256a128 128 0 0 1 128-128h42.688v85.344H298.656A42.656 42.656 0 0 0 256 256v174.944A85.344 85.344 0 0 1 197.376 512 85.344 85.344 0 0 1 256 593.056V768a42.656 42.656 0 0 0 42.656 42.656h42.688V896H298.656a128 128 0 0 1-128-128z m682.688-157.856V768a128 128 0 0 1-128 128h-42.688v-85.344h42.688A42.656 42.656 0 0 0 768 768v-174.944A85.344 85.344 0 0 1 826.624 512 85.344 85.344 0 0 1 768 430.944V256a42.688 42.688 0 0 0-42.656-42.656h-42.688V128h42.688a128 128 0 0 1 128 128v157.856a64 64 0 0 0 64 64h21.312v68.288h-21.312a64 64 0 0 0-64 64z"  /></svg>