<svg class="icon" style="width: 1em;height: 1em;vertical-align: middle;fill: currentColor;overflow: hidden;" viewBox="0 0 1024 1024" version="1.1" xmlns="http://www.w3.org/2000/svg"><path d="M901.12 0H122.88C53.248 0 0 53.248 0 122.88v729.088l40.96-57.344V122.88c0-45.056 36.864-81.92 81.92-81.92h778.24c45.056 0 81.92 36.864 81.92 81.92v327.68l40.96 32.768V122.88c0-69.632-53.248-122.88-122.88-122.88z" /><path d="M983.04 901.12c0 45.056-36.864 81.92-81.92 81.92H122.88c-45.056 0-81.92-36.864-81.92-81.92v-49.152l-40.96 57.344C4.096 974.848 57.344 1024 122.88 1024h778.24c69.632 0 122.88-57.344 122.88-122.88v-380.928l-40.96-32.768V901.12z" /><path d="M368.64 286.72m-81.92 0a81.92 81.92 0 1 0 163.84 0 81.92 81.92 0 1 0-163.84 0Z" /><path d="M217.088 598.016c24.576-32.768 65.536-40.96 98.304-16.384l491.52 397.312H860.16l-4.096-4.096-299.008-237.568 237.568-315.392c20.48-28.672 57.344-32.768 86.016-12.288l102.4 77.824V450.56l-81.92-61.44c-40.96-28.672-98.304-20.48-126.976 16.384l-237.568 311.296-200.704-163.84c-45.056-36.864-110.592-28.672-143.36 20.48L40.96 790.528v61.44l176.128-253.952zM0 913.408V901.12v12.288zM983.04 487.424l40.96 32.768v-36.864l-40.96-32.768zM40.96 790.528l-40.96 57.344v61.44l40.96-57.344v-61.44z" /></svg>