<svg class="icon" style="width: 1em;height: 1em;vertical-align: middle;fill: currentColor;overflow: hidden;" viewBox="0 0 1024 1024" version="1.1" xmlns="http://www.w3.org/2000/svg"><path d="M585.5 444.1l2.3 2.3c54.4 54.4 49.8 140.3-4.6 194.7L457.1 767.3c-54.8 54.4-143.2 54.4-198 0l-2.4-2.4c-54.4-54.4-54.4-143.5 0-198l57.9-54.2c1.7-2.1 3.7-3.9 5.9-5.5l0.6-0.6v0.1c13.8-9.2 32.4-6 42.2 7.4 9.8 13.4 7.4 32.1-5.6 42.5L302 612.3c-29.5 29.6-29.5 77.5 0 107.1l2.4 2.4c29.6 29.5 77.6 29.5 107.2 0l126.1-126.1c29.6-29.6 38.4-80.4 8.8-110l-2.4-2.4c-2.5-2.4-5.1-4.7-7.8-6.8-2.7-1.6-5.1-3.7-7.1-6-9.6-11.6-8.4-28.7 2.6-39s28.1-10.2 39.1 0.1v-0.1c5.2 3.9 10 8 14.6 12.6z"  /><path d="M767.2 259.1c54.5 54.7 54.5 143.2 0 198l-58.6 54c-2 2.5-4.3 4.7-7 6.5l-0.9 0.8-0.1-0.2c-14.1 9.5-33.2 5.8-42.7-8.3-9.5-14.1-5.8-33.2 8.3-42.7l55.6-55.6c29.6-29.6 29.6-77.6 0-107.2l-2.4-2.3c-29.6-29.5-77.5-29.5-107.1 0L486.2 428.3c-29.6 29.6-40.8 72.5-11.2 102.1l2.3 2.3c4.6 4.6 11.3 9.5 14.8 17.5 5.2 10.6 2.8 23.4-5.9 31.4-8.6 8.1-21.5 9.5-31.8 3.6l-0.1-0.1c-2.5-1.4-4.7-3.2-6.6-5.3-2.6-2.3-5.2-4.6-7.6-7.1l-2.3-2.3c-54.4-54.5-51.4-133.1 3-187.5l126.1-126.1c54.8-54.4 143.2-54.4 198 0l2.3 2.3z" /></svg>