<svg class="icon" style="width: 1em;height: 1em;vertical-align: middle;fill: currentColor;overflow: hidden;" viewBox="0 0 1024 1024" version="1.1" xmlns="http://www.w3.org/2000/svg"><path d="M75.7 132.2v-26.5c8.6 0.6 17.3 0.6 25.9 0 7.3-1.5 14-5.3 19.2-10.7 3.7-4 6.4-8.8 7.9-14.1 0.3-2.6 0.3-5.3 0-7.9h36.1v196.7h-42.3V132.2H75.7z m0 436.8c9.3-17.3 22.9-31.9 39.5-42.3 12.3-8.3 24-17.5 35-27.6 7.8-7.6 12.2-17.9 12.4-28.7 0.3-7.5-2.1-14.9-6.8-20.9-5.1-5.8-12.6-9-20.3-8.5-10.9-2.5-22.1 2.9-27.1 13-3 7.7-4.5 15.9-4.5 24.2H67.3c-0.1-14.2 3-28.3 9-41.1 10.8-20.7 33.2-32.5 56.4-29.9 18.4-0.9 36.4 5.3 50.2 17.5 12.5 12 19.3 28.9 18.6 46.2 0.3 14.2-4.3 28.1-13 39.5-8.3 9.8-18 18.4-28.7 25.4L143.9 547l-20.3 15.2c-3.6 3.1-6.6 6.7-9 10.7h86.8v34.4H65c0.2-13.5 3.2-26.7 9-38.9l1.7 0.6z m28.2 316.3c-0.2 6.8 1.2 13.5 3.9 19.7 4.8 9.7 15.1 15.6 25.9 14.7 6.5 0.2 12.8-1.8 18-5.6 5.9-6 9-14.2 8.5-22.5 1.1-11.3-5.3-22.1-15.8-26.5-8.9-4.1-18.4-6.6-28.2-7.3v-28.2c9 0.3 18-1 26.5-3.9 9.2-4.3 14.4-14.2 13-24.2 0.3-6.9-2.1-13.5-6.8-18.6-4.9-5-11.6-7.7-18.6-7.3-7.8-0.5-15.4 2.8-20.3 9-4.7 7-6.9 15.3-6.2 23.7H67.3c0.3-9.6 2-19.1 5.1-28.2 3.5-8.1 8.7-15.4 15.2-21.4 5.2-4.7 11.4-8.4 18-10.7 8.4-2.4 17.2-3.3 25.9-2.8 16.7-0.8 33.1 4.4 46.2 14.7 11.6 9.7 18.1 24.3 17.5 39.5 0.3 10.9-3.5 21.6-10.7 29.9-3.6 4.4-8.3 7.9-13.5 10.1 5.9 1.3 11.2 4.5 15.2 9 10.3 9.8 15.9 23.6 15.2 37.8 0.2 16.5-6.1 32.5-17.5 44.5-13.7 13.6-32.6 20.5-51.9 19.2-22.4 1.4-43.8-9.1-56.4-27.6-6.3-11.8-9.5-25-9.6-38.3l37.9 1.3z m0 0" /><path d="M927 540.3H310.6c-17.8 0-32.3-14.5-32.3-32.3v-3.3c0-17.8 14.5-32.3 32.3-32.3H927c17.8 0 32.3 14.5 32.3 32.3v3.3c0 17.8-14.5 32.3-32.3 32.3zM926.5 196.3H310.6c-17.8 0-32.3-14.5-32.3-32.3v-3.3c0-17.8 14.5-32.3 32.3-32.3h615.9c17.8 0 32.3 14.5 32.3 32.3v3.3c0 17.8-14.5 32.3-32.3 32.3zM926.5 879.3H310.6c-17.8 0-32.3-14.5-32.3-32.3v-3.3c0-17.8 14.5-32.3 32.3-32.3h615.9c17.8 0 32.3 14.5 32.3 32.3v3.3c0 17.8-14.5 32.3-32.3 32.3z"  /></svg>