<svg class="icon" style="width: 1em;height: 1em;vertical-align: middle;fill: currentColor;overflow: hidden;" viewBox="0 0 1024 1024" version="1.1" xmlns="http://www.w3.org/2000/svg"><path d="M184.426667 149.333333C165.056 149.333333 149.333333 165.056 149.333333 184.426667v655.146666C149.333333 858.944 165.056 874.666667 184.426667 874.666667h655.146666c19.370667 0 35.093333-15.722667 35.093334-35.093334V184.426667C874.666667 165.056 858.944 149.333333 839.573333 149.333333H184.426667z m4.693333-64h645.76A103.786667 103.786667 0 0 1 938.666667 189.12v645.76A103.786667 103.786667 0 0 1 834.88 938.666667H189.12A103.786667 103.786667 0 0 1 85.333333 834.88V189.12A103.786667 103.786667 0 0 1 189.12 85.333333z"  /><path d="M298.666667 298.666667a32 32 0 0 0-32 32v21.333333A32 32 0 0 0 298.666667 384h21.333333a32 32 0 0 0 32-32v-21.333333A32 32 0 0 0 320 298.666667h-21.333333z m0-64h21.333333a96 96 0 0 1 96 96v21.333333A96 96 0 0 1 320 448h-21.333333a96 96 0 0 1-96-96v-21.333333A96 96 0 0 1 298.666667 234.666667zM522.666667 373.333333a32 32 0 0 1 0-64h254.378666a32 32 0 0 1 0 64H522.666667zM522.666667 710.186667a32 32 0 1 1 0-64h254.378666a32 32 0 0 1 0 64H522.666667zM386.986667 585.898667a32 32 0 1 1 46.272 44.202666l-125.077334 130.901334a32 32 0 0 1-45.44 0.853333l-57.898666-56.234667a32 32 0 1 1 44.565333-45.909333l34.773333 33.749333 102.805334-107.562666z" /></svg>